<svg width="9997" height="10000" viewBox="0 0 9997 10000" xmlns="http://www.w3.org/2000/svg"><title>Logo</title><g transform="translate(-1)" fill="none" fill-rule="evenodd"><path d="M3124.646 837.606c0-1884.613 839.102 0 1874.188 0 1035.085 0 1874.187-1884.613 1874.187 0S6033.92 4250 4998.834 4250c-1035.086 0-1874.188-1527.78-1874.188-3412.394zm0 8324.788c0 1884.613 839.102 0 1874.188 0 1035.085 0 1874.187 1884.613 1874.187 0S6033.92 5750 4998.834 5750c-1035.086 0-1874.188 1527.78-1874.188 3412.394zm6035.336-6036.582c1884.614 0 0 839.103 0 1874.188s1884.614 1874.188 0 1874.188c-1884.613 0-3412.394-839.103-3412.394-1874.188S7275.37 3125.812 9159.982 3125.812zM837.685 6874.188c-1884.613 0 0-839.103 0-1874.188s-1884.613-1874.188 0-1874.188S4250.079 3964.915 4250.079 5000 2722.3 6874.188 837.685 6874.188z" fill="#F16272"/><ellipse fill="#FFF" cx="4998.834" cy="3125" rx="499.783" ry="500"/><ellipse fill="#FFF" cx="6873.021" cy="5000" rx="499.783" ry="500"/><ellipse fill="#FFF" cx="3124.646" cy="5000" rx="499.783" ry="500"/><ellipse fill="#FFF" cx="4998.834" cy="6875" rx="499.783" ry="500"/></g></svg>