<svg width="1280" height="720" viewBox="0 0 1280 720" xmlns="http://www.w3.org/2000/svg"><title>main-screen</title><g fill="none" fill-rule="evenodd"><path fill="#F7F6F6" d="M0 0h1280v720H0z"/><g transform="translate(440 160)"><path d="M124.986 33.504c0-75.384 33.564 0 74.967 0 41.404 0 74.968-75.384 74.968 0C274.92 108.89 241.357 170 199.953 170c-41.403 0-74.967-61.111-74.967-136.496zm0 332.992c0 75.384 33.564 0 74.967 0 41.404 0 74.968 75.384 74.968 0C274.92 291.11 241.357 230 199.953 230c-41.403 0-74.967 61.111-74.967 136.496zM366.4 125.032c75.384 0 0 33.565 0 74.968 0 41.403 75.384 74.968 0 74.968-75.385 0-136.496-33.565-136.496-74.968 0-41.403 61.11-74.968 136.495-74.968zM33.507 274.968c-75.384 0 0-33.565 0-74.968 0-41.403-75.384-74.968 0-74.968 75.385 0 136.496 33.565 136.496 74.968 0 41.403-61.111 74.968-136.496 74.968z" fill="#F16272"/><ellipse fill="#FFF" cx="199.953" cy="125" rx="19.991" ry="20"/><ellipse fill="#FFF" cx="274.921" cy="200" rx="19.991" ry="20"/><ellipse fill="#FFF" cx="124.986" cy="200" rx="19.991" ry="20"/><ellipse fill="#FFF" cx="199.953" cy="275" rx="19.991" ry="20"/></g></g></svg>