<svg width="7680" height="4320" viewBox="0 0 7680 4320" xmlns="http://www.w3.org/2000/svg"><title>Rectangle 1 + Logo + Monogatari + All stories should b</title><g fill="none" fill-rule="evenodd"><path fill="#F7F6F6" d="M0 0h7680v4320H0z"/><g transform="translate(287 660)"><path d="M937.706 251.282c0-565.384 251.815 0 562.444 0 310.63 0 562.444-565.384 562.444 0S1810.779 1275 1500.15 1275c-310.63 0-562.444-458.334-562.444-1023.718zm0 2497.436c0 565.384 251.815 0 562.444 0 310.63 0 562.444 565.384 562.444 0S1810.779 1725 1500.15 1725c-310.63 0-562.444 458.334-562.444 1023.718zM2748.782 937.556c565.384 0 0 251.815 0 562.444 0 310.63 565.384 562.444 0 562.444S1725.064 1810.629 1725.064 1500c0-310.63 458.334-562.444 1023.718-562.444zM251.518 2062.444c-565.384 0 0-251.815 0-562.444 0-310.63-565.384-562.444 0-562.444S1275.236 1189.371 1275.236 1500c0 310.63-458.334 562.444-1023.718 562.444z" fill="#F16272"/><ellipse fill="#FFF" cx="1500.15" cy="937.5" rx="149.985" ry="150"/><ellipse fill="#FFF" cx="2062.594" cy="1500" rx="149.985" ry="150"/><ellipse fill="#FFF" cx="937.706" cy="1500" rx="149.985" ry="150"/><ellipse fill="#FFF" cx="1500.15" cy="2062.5" rx="149.985" ry="150"/></g><g font-family="Ubuntu" fill="#696969"><text font-size="700" transform="translate(3723 1643)"><tspan x="0" y="652">Monogatari</tspan></text><text font-size="200" transform="translate(3723 1643)"><tspan x="673" y="990">Every story should be told</tspan></text></g></g></svg>